<svg xmlns:dc="http://purl.org/dc/elements/1.1/" xmlns:cc="http://creativecommons.org/ns#" xmlns:rdf="http://www.w3.org/1999/02/22-rdf-syntax-ns#" xmlns:svg="http://www.w3.org/2000/svg" xmlns="http://www.w3.org/2000/svg" xmlns:sodipodi="http://sodipodi.sourceforge.net/DTD/sodipodi-0.dtd" xmlns:inkscape="http://www.inkscape.org/namespaces/inkscape" version="1.1" x="0px" y="0px" viewBox="0 0 100 125"><g transform="translate(0,-952.36218)"><path d="m 37.00015,958.36243 c -0.244,0 -0.4236,0.015 -0.5938,0.031 -0.027,0 -0.069,0 -0.094,0 -7.3947,0.3579 -13.3125,6.4888 -13.3125,13.9688 0,1.0289 0.3183,1.9453 0.5312,2.9062 -7.2543,2.3294 -12.5312,9.09 -12.5312,17.0938 0,2.3085 0.5506,4.4531 1.3438,6.4687 -3.8198,3.29837 -6.3438,8.09547 -6.3438,13.53127 0,6.9289 4.0201,12.8388 9.7812,15.8437 0.6499,6.5585 6.1528,11.75 12.875,11.75 0.6391,0 1.2022,-0.1896 1.8126,-0.2812 1.0428,3.811 4.4033,6.6875 8.5312,6.6875 4.5121,0 8.2497,-3.368 8.875,-7.7188 0.018,-0.127 0.073,-0.3435 0.094,-0.5937 l 0,-0.062 c 0.017,-0.1758 0.031,-0.3696 0.031,-0.625 l 0,-71.99997 c 0,-3.8434 -3.1566,-7 -7,-7 l -4,0 z m 22,0 c -3.8434,0 -7,3.1566 -7,7 l 0,71.99997 c 0,0.2554 0.014,0.4492 0.031,0.625 l 0,0.062 c 0.021,0.2502 0.075,0.4667 0.094,0.5937 0.6253,4.3508 4.3629,7.7188 8.875,7.7188 4.1279,0 7.4884,-2.8765 8.5312,-6.6875 0.6103,0.092 1.1735,0.2812 1.8126,0.2812 6.7222,0 12.2251,-5.1915 12.875,-11.75 5.7611,-3.0049 9.7812,-8.9148 9.7812,-15.8437 0,-5.4358 -2.524,-10.2329 -6.3438,-13.53127 0.7931,-2.0156 1.3438,-4.1602 1.3438,-6.4687 0,-8.0038 -5.2769,-14.7644 -12.5312,-17.0938 0.213,-0.9609 0.5312,-1.8773 0.5312,-2.9062 0,-7.48 -5.9178,-13.6109 -13.3125,-13.9688 -0.025,0 -0.067,0 -0.094,0 -0.1701,-0.016 -0.3498,-0.031 -0.5938,-0.031 l -4,0 z" style="text-indent:0;text-transform:none;direction:ltr;block-progression:tb;baseline-shift:baseline;color:#000000;enable-background:accumulate;" fill="#fff" fill-opacity="1" stroke="none" marker="none" visibility="visible" display="inline" overflow="visible"/></g></svg>